<?xml version="1.0" encoding="utf-8"?>
<!-- Generator: Adobe Illustrator 22.0.1, SVG Export Plug-In . SVG Version: 6.00 Build 0)  -->
<svg version="1.1" id="Layer_1" xmlns="http://www.w3.org/2000/svg" xmlns:xlink="http://www.w3.org/1999/xlink" x="0px" y="0px"
	 viewBox="0 0 512 373.8" style="enable-background:new 0 0 512 373.8;" xml:space="preserve">
<style type="text/css">
	.st0{fill:#E6E6E6;}
	.st1{fill:#101010;}
	.st2{fill:#FF6417;}
	.st3{fill:#FFFFFF;}
</style>
<g>
	<g>
		<path class="st1" d="M510.9,25.2c-2.5-15-11.3-23.8-24.8-24.6c-1.8-0.7-3.8,0.3-5.6-0.6h-1.4c-0.2,0.2-0.4,0.6-0.6,0.6
			c-18.3,3.2-35.9,9.2-54,13.6c-1.8,0.4-2.3,1.2-2.3,3c0.1,4-0.1,8-0.1,12.1c-0.3,58.9-0.7,117.9-1.1,176.8c0,2.6,0.3,3.3,3.2,2.5
			c15-4.1,30.2-7.8,45.2-12c14.7-4.1,26.5-12.4,34-26c5.4-9.7,7.9-20.2,8-31.3c0.1-26.6,0.4-53.3,0.4-79.9
			C511.7,47.9,512.7,36.5,510.9,25.2z M482,68c-0.1,26.5-0.4,53.1-0.4,79.6c0,12.2-5.7,19.7-17.4,22.6c-4.3,1.1-8.6,2.1-13.1,3.2
			c0-9.9,0-19.4,0-28.9c0.1-23.8,0.3-47.6,0.5-71.3c0.1-12,0.3-23.9,0.2-35.8c0-2.4,0.9-3.1,3-3.6c4.1-0.9,8.2-2,12.3-3.2
			c8.7-2.4,14.4,1.5,14.8,10.5C482.2,50,482,59,482,68z"/>
		<path class="st1" d="M161.8,221c0,4.9,0,9.3,0,13.6c0,2.1,0.1,4.1,0.5,6.2c1.6,7.3,6,10.2,13.3,8.6c10.7-2.3,16.5-10.2,17.2-21.9
			c1.1-18-9-28.9-22.8-37.6c-7.6-4.8-14.8-9.9-21.1-16.4c-8.1-8.3-12.7-18.2-13.7-29.7c-1.4-14.9,1-29.1,8.9-42
			c9.4-15.4,23.7-23.4,41.1-26.6c4.8-0.9,9.6-1.2,14.4-0.4c12.4,2.1,18.5,10.6,21.4,22c2,7.6,1.8,15.5,1.7,23.3
			c0,1.7-0.7,2.1-2.1,2.5c-8,2-16,4.1-24,6.2c-1.7,0.5-2.2,0.1-2.2-1.7c0-4.2,0.1-8.5-0.2-12.7c-0.7-9.1-6.6-12.9-15.3-10.1
			c-9,2.9-13.6,9.5-14.3,20.1c-0.9,12.9,5,22.1,14.5,29.9c5.4,4.4,11.5,7.5,17.1,11.5c11.6,8.4,21.6,18.2,24.4,32.9
			c4.9,25.8,0.8,49.2-20.5,67c-10,8.3-22.1,12.2-34.9,13.1c-16.8,1.2-26.9-7-30.3-23.5c-1.7-8.3-1.3-16.7-1.4-25.1
			c0-1.3,0.6-1.8,1.7-2C144.1,225.7,152.8,223.4,161.8,221z"/>
		<path class="st1" d="M410.1,18.2c0,8.6,0,17.1,0,25.6c0,1.8-0.9,2.2-2.4,2.6c-15.4,4-30.8,8.2-46.2,12.2c-2.5,0.6-3.1,1.7-3.1,4.2
			c0,15.1,0,30.1-0.3,45.2c0,3,0.9,3,3.3,2.4c11.4-3.1,22.8-6.1,34.2-9.1c1.1-0.3,2.2-0.5,3.4-0.8c0,8.9-0.1,17.5,0,26.1
			c0,2.2-1.6,2-2.8,2.3c-11.6,3.1-23.2,6.3-34.9,9.2c-2.8,0.7-3.5,1.8-3.5,4.6c0.1,17.7,0,35.4-0.2,53.1c0,2.6,0.7,2.8,2.8,2.2
			c15.3-4.1,30.6-8.1,45.8-12.3c2.2-0.6,2.9-0.6,2.8,2.1c-0.3,7.5-0.2,14.9-0.1,22.4c0,1.9-0.5,2.8-2.5,3.3
			c-25.4,6.6-50.7,13.4-76.1,20.2c-2.3,0.6-2.9,0.4-2.9-2.1c0.3-35.8,0.6-71.7,0.8-107.5c0.2-27.2,0.4-54.5,0.5-81.7
			c0-2,0.7-2.7,2.5-3.2c25.9-6.8,51.8-13.7,77.8-20.6C409.4,18.2,409.7,18.2,410.1,18.2z"/>
		<path class="st1" d="M319.7,42c0,8.9-0.1,17.4,0,25.9c0,1.9-1,2.2-2.5,2.5c-8.6,2.3-17.2,4.7-25.9,6.9c-2.3,0.6-3,1.6-3,4
			c-0.1,35.5-0.4,71-0.6,106.5c-0.1,18-0.3,36.1-0.3,54.1c0,2.3-0.5,3.4-3,3.9c-8.1,1.9-16.2,4.1-24.3,6.3c-2,0.6-2.6,0.2-2.6-1.9
			c0.2-27.8,0.3-55.6,0.5-83.4c0.2-26.2,0.3-52.4,0.5-78.6c0-2.2-0.7-2.1-2.4-1.7c-8.5,2.3-17.1,4.5-25.6,6.8c-1,0.3-1.9,0.7-3,0.4
			c0-8.5,0.1-17-0.1-25.5c0-2.3,1.5-2.3,2.8-2.6c15.8-4.2,31.7-8.4,47.5-12.6C291.7,49.4,305.6,45.7,319.7,42z"/>
		<path class="st1" d="M4,319.9c-0.1-1.1-0.1-2.3-0.2-3.4c0-4.4,0-8.7,0-13.1c0-4.4,0-8.7,0-13.1c0-4.1,0-8.3,0-12.4
			c0.1-13.8,0.2-27.6,0.3-41.3c0.2-36.1,0.5-72.1,0.6-108.2c0-2.2,0.6-3.1,2.9-3.7c8-1.9,16-4,23.9-6.2c2.6-0.7,3.3-0.4,3.2,2.4
			c-0.3,28-0.5,56-0.6,84.1c-0.1,26.3,0,52.6,0,79.2c0.5,0.3,1.4-0.3,2.4-0.5c14.4-3.8,28.8-7.6,43.2-11.6c2.2-0.6,3-0.5,2.9,2.1
			c-0.2,7.6-0.2,15.2-0.1,22.7c0,1.7-0.5,2.4-2.1,2.8C54.9,306.5,29.5,313.2,4,319.9z"/>
		<path class="st1" d="M122.4,94.5c0,21.7,0.1,42.9,0,64.1c-0.2,32.2-0.4,64.3-0.7,96.5c-0.1,10.5-0.2,20.9-0.2,31.4
			c0,2.1-0.8,2.7-2.6,3.2c-8.1,2-16.2,4-24.3,6.3c-2.8,0.8-3.2,0.2-3.1-2.5c0.3-33.5,0.5-67.1,0.7-100.6c0.2-29.4,0.4-58.8,0.6-88.2
			c0-1.4-0.2-2.6,1.8-3.1C103.9,99.3,113.1,96.9,122.4,94.5z"/>
	</g>
	<polygon class="st1" points="423,229.6 422.7,263.2 509.8,240.1 509.8,205.8 	"/>
	<g>
		<g>
			<path class="st3" d="M16.7,355c-0.4-0.7-1-1.2-1.8-1.4c-0.8-0.2-1.7-0.2-2.8,0.1c-1.9,0.5-3.4,1.5-4.5,3.1
				c-1.1,1.6-1.7,3.4-1.7,5.6c0,2.3,0.6,3.9,1.8,4.8c1.2,1,2.8,1.2,4.9,0.6c1.4-0.4,2.6-1.1,3.6-2.1c1-1,1.7-2.3,2.1-3.8l-7.3,2
				v-4.4l12.6-3.4v5.6c-0.4,1.6-1.2,3.2-2.2,4.8c-1,1.6-2.3,3-3.9,4.2c-1.6,1.2-3.4,2.1-5.3,2.6c-2.3,0.6-4.4,0.7-6.3,0.1
				c-1.8-0.6-3.3-1.7-4.3-3.3c-1-1.6-1.5-3.6-1.5-6.1s0.5-4.7,1.5-6.9c1-2.2,2.5-4.1,4.3-5.6c1.8-1.6,3.9-2.7,6.3-3.3
				c2.8-0.8,5.2-0.7,7.2,0.2c2,0.9,3.2,2.5,3.9,4.9L16.7,355z"/>
			<path class="st3" d="M38.9,365.9l-4.9-8l-1.4,0.4v9.3l-5.8,1.6v-24.6l9.7-2.6c1.9-0.5,3.5-0.6,4.8-0.3c1.3,0.3,2.3,1,3,2
				c0.7,1,1,2.2,1,3.7c0,1.6-0.4,3.2-1.3,4.7c-0.9,1.5-2.2,2.8-3.9,3.8l5.5,8.3L38.9,365.9z M32.6,354l3.6-1
				c1.1-0.3,1.9-0.8,2.4-1.5c0.5-0.7,0.8-1.5,0.8-2.5c0-0.9-0.3-1.6-0.8-2c-0.5-0.4-1.3-0.5-2.4-0.2l-3.6,1V354z"/>
			<path class="st3" d="M53.9,360.4c-1.9-0.6-3.3-1.7-4.4-3.3c-1.1-1.6-1.6-3.7-1.6-6.1c0-2.4,0.5-4.7,1.6-6.9
				c1.1-2.2,2.6-4.1,4.4-5.7c1.9-1.6,3.9-2.7,6.1-3.3c2.2-0.6,4.3-0.6,6.1,0c1.9,0.6,3.3,1.7,4.4,3.3c1.1,1.6,1.6,3.7,1.6,6.1
				c0,2.4-0.5,4.7-1.6,6.9c-1.1,2.2-2.6,4.1-4.4,5.7c-1.9,1.6-3.9,2.7-6.1,3.3C57.8,361,55.8,361,53.9,360.4z M64.6,351.7
				c1.1-1.6,1.7-3.5,1.7-5.7c0-2.2-0.6-3.8-1.7-4.8c-1.1-1-2.7-1.2-4.5-0.7c-1.9,0.5-3.4,1.6-4.6,3.2c-1.1,1.6-1.7,3.5-1.7,5.7
				c0,2.2,0.6,3.8,1.7,4.8c1.1,1,2.7,1.2,4.6,0.7C62,354.4,63.5,353.3,64.6,351.7z"/>
			<path class="st3" d="M108.1,322.5l-6.2,26.3l-7,1.9l-3.8-15.2l-3.9,17.3l-7,1.9l-6-23l6.2-1.7l3.4,17L88,328l6.4-1.7l4.1,16.8
				l3.5-18.9L108.1,322.5z"/>
			<path class="st3" d="M128.1,317.1v4.8l-6.3,1.7v19.8l-5.8,1.6v-19.8l-6.3,1.7v-4.8L128.1,317.1z"/>
			<path class="st3" d="M151.6,310.8v24.6l-5.8,1.6v-10.1l-9,2.4v10.1L131,341v-24.6l5.8-1.6v9.7l9-2.4v-9.7L151.6,310.8z"/>
			<path class="st3" d="M178.4,303.6v4.8l-9.7,2.6v5.2l7.2-2v4.7l-7.2,2v10l-5.8,1.6v-24.6L178.4,303.6z"/>
			<path class="st3" d="M186.5,324.7c-1.9-0.6-3.3-1.7-4.4-3.3c-1.1-1.6-1.6-3.7-1.6-6.1c0-2.4,0.5-4.7,1.6-6.9
				c1.1-2.2,2.6-4.1,4.4-5.7c1.9-1.6,3.9-2.7,6.1-3.3c2.2-0.6,4.3-0.6,6.1,0c1.9,0.6,3.3,1.7,4.4,3.3c1.1,1.6,1.6,3.7,1.6,6.1
				c0,2.4-0.5,4.7-1.6,6.9c-1.1,2.2-2.6,4.1-4.4,5.7c-1.9,1.6-3.9,2.7-6.1,3.3C190.4,325.2,188.4,325.2,186.5,324.7z M197.2,315.9
				c1.1-1.6,1.7-3.5,1.7-5.7c0-2.2-0.6-3.8-1.7-4.8c-1.1-1-2.7-1.2-4.5-0.7c-1.9,0.5-3.4,1.6-4.6,3.2c-1.1,1.6-1.7,3.5-1.7,5.7
				c0,2.2,0.6,3.8,1.7,4.8s2.7,1.2,4.6,0.7C194.6,318.6,196.1,317.6,197.2,315.9z"/>
			<path class="st3" d="M220.1,317l-4.9-8l-1.4,0.4v9.3l-5.8,1.6v-24.6l9.7-2.6c1.9-0.5,3.5-0.6,4.8-0.3c1.3,0.3,2.3,1,3,2
				c0.7,1,1,2.2,1,3.7c0,1.6-0.4,3.2-1.3,4.8c-0.9,1.5-2.2,2.8-3.9,3.8l5.5,8.3L220.1,317z M213.8,305.1l3.6-1
				c1.1-0.3,1.9-0.8,2.4-1.5c0.5-0.7,0.8-1.5,0.8-2.5c0-0.9-0.3-1.6-0.8-2c-0.5-0.4-1.3-0.4-2.4-0.2l-3.6,1V305.1z"/>
			<path class="st3" d="M237.8,293.3c1-2.2,2.4-4,4.2-5.6c1.8-1.6,3.9-2.6,6.2-3.3c2.8-0.8,5.2-0.6,7.2,0.4c2,1,3.3,2.7,4,5.2
				l-6.4,1.7c-0.5-0.9-1.1-1.5-2-1.8c-0.9-0.3-1.9-0.3-3,0c-1.8,0.5-3.2,1.5-4.3,3.1c-1.1,1.6-1.7,3.5-1.7,5.6
				c0,2.2,0.6,3.7,1.7,4.7c1.1,1,2.5,1.2,4.3,0.8c1.1-0.3,2.1-0.8,3-1.6c0.9-0.8,1.5-1.7,2-2.9l6.4-1.7c-0.7,2.9-2,5.3-4,7.4
				c-2,2.1-4.4,3.5-7.2,4.3c-2.3,0.6-4.4,0.6-6.2,0.1c-1.8-0.6-3.2-1.7-4.2-3.3c-1-1.6-1.5-3.7-1.5-6.1
				C236.3,297.8,236.8,295.5,237.8,293.3z"/>
			<path class="st3" d="M275.2,302.1l-4.9-8l-1.4,0.4v9.3l-5.8,1.6v-24.6l9.7-2.6c1.9-0.5,3.5-0.6,4.8-0.3c1.3,0.3,2.3,1,3,2
				c0.7,1,1,2.2,1,3.7c0,1.6-0.4,3.2-1.3,4.8c-0.9,1.5-2.2,2.8-3.9,3.8l5.5,8.3L275.2,302.1z M268.8,290.3l3.6-1
				c1.1-0.3,1.9-0.8,2.4-1.5c0.5-0.7,0.8-1.5,0.8-2.5c0-0.9-0.3-1.6-0.8-2c-0.5-0.4-1.3-0.5-2.4-0.2l-3.6,1V290.3z"/>
			<path class="st3" d="M290.9,278v5l7.8-2.1v4.6l-7.8,2.1v5.4l8.8-2.4v4.8l-14.6,3.9v-24.6l14.6-3.9v4.8L290.9,278z"/>
			<path class="st3" d="M318.2,286.1l-8.9,2.4l-1.4,4.7l-6.1,1.6l8.6-27l6.7-1.8l8.6,22.3l-6.1,1.7L318.2,286.1z M316.7,281.9
				l-2.9-8.2l-2.9,9.8L316.7,281.9z"/>
			<path class="st3" d="M345.4,258.5v4.8l-6.3,1.7v19.8l-5.8,1.6v-19.8l-6.3,1.7v-4.8L345.4,258.5z"/>
			<path class="st3" d="M353.4,279.6c-1.9-0.6-3.3-1.7-4.4-3.3c-1.1-1.6-1.6-3.7-1.6-6.1c0-2.4,0.5-4.7,1.6-6.9
				c1.1-2.2,2.6-4.1,4.4-5.7c1.9-1.6,3.9-2.7,6.1-3.3c2.2-0.6,4.3-0.6,6.1,0c1.9,0.6,3.3,1.7,4.4,3.3c1.1,1.6,1.6,3.7,1.6,6.1
				c0,2.4-0.5,4.7-1.6,7c-1.1,2.2-2.6,4.1-4.4,5.7c-1.9,1.6-3.9,2.7-6.1,3.3C357.4,280.2,355.3,280.2,353.4,279.6z M364.1,270.9
				c1.1-1.6,1.7-3.5,1.7-5.7c0-2.2-0.6-3.8-1.7-4.8c-1.1-1-2.7-1.2-4.5-0.7c-1.9,0.5-3.4,1.6-4.6,3.2c-1.1,1.6-1.7,3.5-1.7,5.7
				c0,2.2,0.6,3.8,1.7,4.8c1.1,1,2.7,1.2,4.6,0.7C361.5,273.6,363,272.5,364.1,270.9z"/>
			<path class="st3" d="M387.1,271.9l-4.9-8l-1.4,0.4v9.3l-5.8,1.6v-24.6l9.7-2.6c1.9-0.5,3.5-0.6,4.8-0.3c1.3,0.3,2.3,1,3,2
				c0.7,1,1,2.2,1,3.7c0,1.6-0.4,3.2-1.3,4.7c-0.9,1.5-2.2,2.8-3.9,3.8l5.5,8.3L387.1,271.9z M380.7,260.1l3.6-1
				c1.1-0.3,1.9-0.8,2.4-1.5c0.5-0.7,0.8-1.5,0.8-2.5c0-0.9-0.3-1.6-0.8-2c-0.5-0.4-1.3-0.5-2.4-0.2l-3.6,1V260.1z"/>
			<path class="st3" d="M400.9,267.5c-1.4-0.2-2.5-0.8-3.3-1.7c-0.8-0.9-1.3-2.2-1.3-3.8l6.2-1.7c0.1,0.9,0.4,1.5,0.9,1.8
				c0.5,0.3,1.2,0.4,2,0.2c0.9-0.2,1.5-0.6,2-1.2c0.5-0.5,0.7-1.2,0.7-1.9c0-0.6-0.2-1.1-0.6-1.3c-0.4-0.3-0.9-0.5-1.5-0.6
				c-0.6-0.1-1.4-0.2-2.5-0.2c-1.5-0.1-2.8-0.2-3.8-0.5c-1-0.2-1.8-0.7-2.5-1.5c-0.7-0.8-1-1.9-1-3.5c0-2.3,0.8-4.3,2.4-6
				c1.6-1.7,3.7-2.9,6.3-3.6c2.6-0.7,4.7-0.6,6.3,0.2c1.6,0.9,2.5,2.4,2.6,4.7l-6.3,1.7c0-0.8-0.3-1.3-0.8-1.7
				c-0.5-0.3-1.2-0.4-2-0.1c-0.7,0.2-1.3,0.5-1.7,1c-0.4,0.5-0.6,1.1-0.6,1.8c0,0.8,0.4,1.3,1.1,1.6c0.7,0.2,1.8,0.4,3.4,0.5
				c1.5,0.1,2.8,0.3,3.7,0.5c1,0.2,1.8,0.7,2.5,1.5c0.7,0.7,1,1.9,1,3.3c0,1.4-0.3,2.8-1,4.1c-0.7,1.3-1.7,2.5-3,3.5
				c-1.3,1-2.9,1.8-4.6,2.3C403.9,267.6,402.3,267.8,400.9,267.5z"/>
		</g>
	</g>
</g>
</svg>
